<?xml version="1.0" encoding="UTF-8"?>
<svg width="18px" height="18px" viewBox="0 0 18 18" version="1.1" xmlns="http://www.w3.org/2000/svg" xmlns:xlink="http://www.w3.org/1999/xlink">
    <!-- Generator: Sketch 43.2 (39069) - http://www.bohemiancoding.com/sketch -->
    <title>Shape</title>
    <desc>Created with Sketch.</desc>
    <defs></defs>
    <g id="Web-UI-Design-ver02" stroke="none" stroke-width="1" fill="none" fill-rule="evenodd">
        <g id="00-Home-Page" transform="translate(-1251.000000, -1043.000000)">
            <g id="unit_set" transform="translate(132.000000, 640.000000)">
                <g id="homepage_item" transform="translate(900.000000, 56.000000)">
                    <g id="details" transform="translate(177.000000, 347.000000)">
                        <g id="ic_local_hotel_black_24px-copy" transform="translate(42.000000, 0.000000)">
                            <polygon id="Shape" points="0 0 18 0 18 18 0 18"></polygon>
                            <path d="M17.3653846,9.11538462 L17.3653846,4.03846154 C17.3653846,3.018 16.6895192,1.5 14.8269231,1.5 C13.2600577,1.5 12.5397692,2.57376923 12.34875,3.52251923 C11.5910192,3.76621154 11.0389038,4.46873077 11.0389038,5.30769231 L14.80725,5.30769231 C14.80725,4.5195 14.3224038,3.84617308 13.6351154,3.56503846 C13.7544231,3.19823077 14.0565,2.76923077 14.8269231,2.76923077 C15.9857308,2.76923077 16.0910769,3.74463462 16.0961538,4.03846154 L16.0961538,9.11538462 L2.13461538,9.11538462 C1.78430769,9.11538462 1.5,9.39969231 1.5,9.75 L1.5,10.3846154 C1.5,10.7355577 1.78430769,11.0192308 2.13461538,11.0192308 L2.13461538,12.9230769 C2.13461538,14.2989231 3.29532692,15.6500192 4.63753846,16.0041346 C4.57471154,16.3144615 4.41288462,16.7307692 4.03846154,16.7307692 C3.68815385,16.7307692 3.40384615,17.0144423 3.40384615,17.3653846 C3.40384615,17.7163269 3.68815385,18 4.03846154,18 C5.13444231,18 5.78048077,17.076 5.91375,16.0961538 L13.5856154,16.0961538 C13.7195192,17.076 14.3655577,18 15.4609038,18 C15.8118462,18 16.0955192,17.7163269 16.0955192,17.3653846 C16.0955192,17.0144423 15.8118462,16.7307692 15.4609038,16.7307692 C15.0864808,16.7307692 14.9246538,16.3144615 14.8618269,16.0041346 C16.2046731,15.6500192 17.3653846,14.2989231 17.3653846,12.9230769 L17.3653846,11.0192308 C17.7163269,11.0192308 18,10.7355577 18,10.3846154 L18,9.75 C18,9.39969231 17.7163269,9.11538462 17.3653846,9.11538462 Z M16.0961538,12.9230769 C16.0961538,13.8305769 15.0998077,14.8269231 14.1923077,14.8269231 L5.30769231,14.8269231 C4.41796154,14.8269231 3.40384615,13.8128077 3.40384615,12.9230769 L3.40384615,11.0192308 L16.0961538,11.0192308 L16.0961538,12.9230769 Z M11.3073462,6.01909615 L11.3460577,5.86551923 C11.3879423,5.69480769 11.5580192,5.59136538 11.7306346,5.63451923 C11.9013462,5.67703846 12.0041538,5.84901923 11.9616346,6.01909615 L11.9229231,6.17267308 C11.88675,6.31736538 11.7572885,6.41319231 11.6151346,6.41319231 C11.58975,6.41319231 11.5643654,6.41001923 11.5383462,6.40367308 C11.3682692,6.36115385 11.2654615,6.18917308 11.3073462,6.01909615 Z M10.9976538,7.25913462 L11.0598462,7.011 C11.1017308,6.84092308 11.2711731,6.73621154 11.4444231,6.78 C11.6151346,6.82251923 11.7179423,6.9945 11.6754231,7.16457692 L11.6132308,7.41271154 C11.5770577,7.55740385 11.4475962,7.65323077 11.3054423,7.65323077 C11.2800577,7.65323077 11.2546731,7.65005769 11.2286538,7.64371154 C11.0585769,7.60119231 10.9551346,7.42857692 10.9976538,7.25913462 Z M10.7114423,8.40398077 L10.7501538,8.25040385 C10.7920385,8.08032692 10.9621154,7.97561538 11.1347308,8.01940385 C11.3054423,8.06192308 11.40825,8.23390385 11.3657308,8.40398077 L11.3270192,8.55755769 C11.2914808,8.70225 11.1620192,8.79807692 11.0192308,8.79807692 C10.9938462,8.79807692 10.9684615,8.79490385 10.9424423,8.78855769 C10.7717308,8.74603846 10.6689231,8.57342308 10.7114423,8.40398077 Z M14.5388077,6.01909615 C14.5806923,6.18917308 14.4778846,6.36115385 14.3078077,6.40367308 C14.2824231,6.41001923 14.2564038,6.41319231 14.2310192,6.41319231 C14.0882308,6.41319231 13.9587692,6.31736538 13.9232308,6.17267308 L13.8845192,6.01909615 C13.8426346,5.84901923 13.9454423,5.67703846 14.1155192,5.63451923 C14.2817885,5.59073077 14.4575769,5.69480769 14.5000962,5.86551923 L14.5388077,6.01909615 Z M14.8485,7.25913462 C14.8903846,7.42921154 14.7875769,7.60119231 14.6175,7.64371154 C14.5921154,7.65005769 14.5660962,7.65323077 14.5407115,7.65323077 C14.3979231,7.65323077 14.2684615,7.55740385 14.2329231,7.41271154 L14.1707308,7.16457692 C14.1288462,6.9945 14.2316538,6.82251923 14.4017308,6.78 C14.568,6.73557692 14.7437885,6.84092308 14.7863077,7.011 L14.8485,7.25913462 Z M14.7114231,8.01940385 C14.8795962,7.97498077 15.0534808,8.08032692 15.096,8.25040385 L15.1347115,8.40398077 C15.1765962,8.57405769 15.0737885,8.74603846 14.9037115,8.78855769 C14.8783269,8.79490385 14.8523077,8.79807692 14.8269231,8.79807692 C14.6841346,8.79807692 14.5546731,8.70225 14.5191346,8.55755769 L14.4804231,8.40398077 C14.4385385,8.23390385 14.5413462,8.06192308 14.7114231,8.01940385 Z M12.6057692,6.10096154 L12.6057692,5.94230769 C12.6057692,5.76715385 12.7479231,5.625 12.9230769,5.625 C13.0982308,5.625 13.2403846,5.76715385 13.2403846,5.94230769 L13.2403846,6.10096154 C13.2403846,6.27611538 13.0982308,6.41826923 12.9230769,6.41826923 C12.7479231,6.41826923 12.6057692,6.27611538 12.6057692,6.10096154 Z M12.6057692,7.08842308 C12.6057692,6.91326923 12.7479231,6.77111538 12.9230769,6.77111538 C13.0982308,6.77111538 13.2403846,6.91326923 13.2403846,7.08842308 L13.2403846,7.33528846 C13.2403846,7.51044231 13.0982308,7.65259615 12.9230769,7.65259615 C12.7479231,7.65259615 12.6057692,7.51044231 12.6057692,7.33528846 L12.6057692,7.08842308 Z M12.6057692,8.32211538 C12.6057692,8.14696154 12.7479231,8.00480769 12.9230769,8.00480769 C13.0982308,8.00480769 13.2403846,8.14696154 13.2403846,8.32211538 L13.2403846,8.48076923 C13.2403846,8.65592308 13.0982308,8.79807692 12.9230769,8.79807692 C12.7479231,8.79807692 12.6057692,8.65592308 12.6057692,8.48076923 L12.6057692,8.32211538 Z" id="Shape" fill="#FFFFFF" fill-rule="nonzero"></path>
                        </g>
                    </g>
                </g>
            </g>
        </g>
    </g>
</svg>