<?xml version="1.0" encoding="UTF-8"?>
<svg width="133px" height="133px" viewBox="0 0 133 133" version="1.1" xmlns="http://www.w3.org/2000/svg" xmlns:xlink="http://www.w3.org/1999/xlink">
    <!-- Generator: Sketch 43.2 (39069) - http://www.bohemiancoding.com/sketch -->
    <title>checked</title>
    <desc>Created with Sketch.</desc>
    <defs></defs>
    <g id="Web-UI-Design-ver02" stroke="none" stroke-width="1" fill="none" fill-rule="evenodd">
        <g id="04-reset-password-success" transform="translate(-657.000000, -447.000000)" fill-rule="nonzero" fill="#40A6A2">
            <g id="checked" transform="translate(657.000000, 447.000000)">
                <path d="M66.8137073,10 C35.4323275,10 10.0015889,35.4374913 10.0015889,66.8121185 C10.0015889,98.1903206 35.4355052,123.624237 66.8137073,123.624237 C98.1883345,123.624237 123.622251,98.1903206 123.622251,66.8121185 C123.622251,35.4410662 98.1883345,10 66.8137073,10 Z M66.8137073,112.971791 C41.3194146,112.971791 20.6540348,92.3064111 20.6540348,66.8121185 C20.6540348,41.3178258 41.3229895,20.652446 66.8137073,20.652446 C92.3044251,20.652446 112.969805,41.3178258 112.969805,66.8121185 C112.969805,92.3064111 92.3048223,112.971791 66.8137073,112.971791 Z M89.1410244,42.6457073 C86.7263693,41.204223 83.6408223,42.0598188 82.2525645,44.5630523 L63.2026481,78.7817213 L52.593101,65.867547 C50.6721812,63.6554704 48.1192962,62.5087178 45.708216,63.9502021 C43.293561,65.3952613 42.2957631,68.8716655 43.8583972,71.1016167 L58.6223902,89.0719094 C59.7266411,90.5062439 60.9869965,91.3658118 62.3045505,91.610892 L62.3152753,91.6323415 L62.4503275,91.6394913 C62.7486341,91.6855679 67.2085366,92.5093868 69.1294564,89.0723066 L90.9952125,49.7975192 C92.382676,47.2899164 91.5556794,44.0907666 89.1410244,42.6457073 Z" id="Shape"></path>
            </g>
        </g>
    </g>
</svg>