<?xml version="1.0" encoding="UTF-8"?>
<svg width="1440px" height="156px" viewBox="0 0 1440 156" version="1.1" xmlns="http://www.w3.org/2000/svg" xmlns:xlink="http://www.w3.org/1999/xlink">
    <!-- Generator: Sketch 43.2 (39069) - http://www.bohemiancoding.com/sketch -->
    <title>footer background</title>
    <desc>Created with Sketch.</desc>
    <defs></defs>
    <g id="Web-UI-Design-ver02" stroke="none" stroke-width="1" fill="none" fill-rule="evenodd">
        <g id="00-Home-Page" transform="translate(0.000000, -3139.000000)" fill="#303D46">
            <g id="footer-logo" transform="translate(-4.000000, 3139.000000)">
                <polygon id="footer-background" points="602.494629 0.0604486037 602.364875 99.5937776 567.107098 99.5937776 567.107098 134.940023 557.031481 134.940023 557.031481 122.465918 530.168413 122.465918 530.168413 89.4867055 521.769773 89.4867055 521.769773 122.465918 518.301795 110.282778 511.698088 110.282778 511.698088 93.6447404 496.589578 93.6447404 496.589578 110.282778 466.42564 110.282778 466.42564 101.96081 444.186543 101.96081 444.186543 96.2712816 436.595917 96.2712816 426.416104 96.2712816 426.416104 65.8203111 408.295723 65.8203111 408.295723 72.3689704 390.175341 72.3689704 390.175341 90.4873863 382.156133 90.4873863 382.156133 59.2716519 366.19439 59.2716519 366.19439 78.8468545 359.639833 78.8468545 359.639833 88.3267809 352.391287 88.3267809 352.391287 110.833251 342.217372 110.833251 342.217372 65.8203111 337.894195 63.6577398 337.831284 53.2026904 330.952341 49.8448069 330.244591 33.684501 329.87892 49.8625006 323.326329 53.4818587 323.326329 63.6577398 319.005118 66.5496875 319.005118 101.35529 307.364586 101.35529 307.364586 117.313101 295.722088 117.313101 295.722088 86.1661755 279.764278 86.1661755 279.764278 95.5713949 268.886544 95.5713949 268.886544 117.313101 260.871268 117.313101 260.871268 78.8468545 235.500374 70.1375899 235.500374 126.028263 228.947783 126.028263 228.947783 89.7894655 212.28812 89.7894655 212.28812 126.028263 206.43345 126.028263 206.43345 115.921191 200.645622 115.921191 200.645622 110.833251 185.383767 110.833251 185.383767 115.921191 180.29386 115.921191 180.29386 126.794993 171.582629 126.794993 171.582629 112.299867 164.332118 112.299867 164.332118 107.211927 154.922966 107.211927 154.922966 91.183341 138.892415 91.183341 138.892415 108.605802 135.265193 12.0902432 108.427682 12.0902432 108.427682 115.921191 104.804392 12.0902432 75.7394336 12.0902432 75.7394336 107.211927 66.3302823 107.211927 66.3302823 100.661301 48.1371594 100.661301 48.1371594 121.007166 38.7260421 121.007166 38.7260421 93.4107895 30.7107663 93.4107895 30.7107663 81.7781217 9.65715131 81.7781217 9.65715131 100.661301 0.248 100.661301 0.248 155.085358 436.574292 155.085358 1444.248 155.085358 1444.248 103.995593 1439.84422 103.995593 1439.84422 34.5436316 1424.661 34.5436316 1424.661 70.890558 1414.86062 70.890558 1414.86062 44.780458 1403.92391 44.780458 1391.99831 57.2408008 1391.99831 118.669623 1386.44443 118.669623 1386.44443 107.414422 1366.84367 107.414422 1366.84367 45.9777361 1354.92594 45.9777361 1343.00821 58.4321811 1343.00821 83.5199746 1327.65395 83.5199746 1327.65395 93.5877272 1322.27111 87.9552118 1307.08003 87.9552118 1307.08003 102.802247 1305.9378 123.281798 1296.13939 123.281798 1296.13939 65.2560766 1294.01417 64.0646964 1285.19678 64.0646964 1283.9071 65.2560766 1279.80608 69.0582702 1276.54256 72.0878361 1276.54256 108.436728 1261.35738 108.436728 1261.35738 51.6102515 1246.00312 51.6102515 1230.82187 67.4795932 1230.82187 108.436728 1219.87729 108.436728 1219.87729 124.473178 1217.75207 65.2560766 1200.28046 65.2560766 1200.28046 91.3701086 1200.28046 130.105693 1181.8239 130.105693 1181.8239 91.3701086 1181.8239 66.4553207 1164.35426 66.4553207 1164.35426 123.281798 1163.37323 107.414422 1151.29232 107.414422 1151.29232 68.6749053 1136.10518 52.8016317 1120.91803 52.8016317 1120.91803 109.628109 1105.56574 109.628109 1105.56574 73.2772503 1102.30025 70.2516164 1102.30025 64.0646964 1085.97481 64.0646964 1085.97481 124.473178 1075.32316 124.249057 1075.1993 89.150524 1059.84308 89.150524 1054.46024 94.8695422 1054.46024 82.3285944 1039.2672 82.3285944 1039.2672 59.6294592 1027.18235 47.0000426 1015.26265 47.0000426 1015.26265 108.436728 995.669759 108.436728 995.669759 119.868867 990.279058 119.868867 990.279058 58.4321811 978.196182 45.9777361 967.420679 45.9777361 967.420679 72.0878361 957.618333 72.0878361 957.618333 35.7369778 942.269974 35.7369778 942.269974 103.995593 936.88124 103.995593 936.88124 108.19688 931.396172 108.19688 931.396172 99.8100347 924.682371 99.8100347 924.682371 87.265155 901.06316 87.265155 901.06316 99.8100347 868.990261 78.656155 868.990261 101.312039 845.886136 101.312039 845.886136 25.9523255 808.654521 25.9523255 808.654521 95.3630016 786.366274 116.516881 786.366274 122.465918 767.781923 122.465918 767.781923 89.3451554 745.951748 89.3451554 745.951748 134.940023 743.407778 107.911813 740.855943 81.0271196 735.011103 81.0271196 735.011103 51.8461683 714.85987 51.8461683 714.85987 81.0271196 705.480208 81.0271196 705.480208 62.2442045 693.029695 62.2442045 693.029695 20.4475984 667.851467 20.4475984 651.520121 45.5432559 651.520121 64.396946 640.235431 64.396946 640.235431 107.911813 637.626583 134.940023 631.954749 134.940023 632.01766 0.190202884"></polygon>
            </g>
        </g>
    </g>
</svg>